<?xml version="1.0" standalone="no"?>
<!DOCTYPE svg PUBLIC "-//W3C//DTD SVG 20010904//EN"
 "http://www.w3.org/TR/2001/REC-SVG-20010904/DTD/svg10.dtd">
<svg version="1.0" xmlns="http://www.w3.org/2000/svg"
 width="512.000000pt" height="512.000000pt" viewBox="0 0 512.000000 512.000000"
 preserveAspectRatio="xMidYMid meet">

<g transform="translate(0.000000,512.000000) scale(0.100000,-0.100000)"
fill="#000000" stroke="none">
<path d="M4225 3394 l-310 -13 -27 -30 c-21 -24 -28 -42 -28 -74 -1 -76 31
-952 35 -973 4 -19 10 -20 97 -16 51 2 95 6 97 8 2 2 -4 202 -14 444 -9 243
-15 443 -13 445 5 5 478 25 592 25 52 0 97 -4 101 -9 3 -5 6 -56 8 -113 2 -92
0 -107 -21 -140 -43 -69 -79 -78 -349 -90 -131 -5 -238 -10 -239 -11 0 -1 1
-45 4 -98 l4 -96 68 5 67 4 216 -173 217 -173 107 2 c60 2 127 5 150 8 l43 6
-207 165 -206 166 74 21 c124 36 210 110 249 214 16 42 20 78 20 181 0 184
-30 256 -130 306 -58 30 -102 30 -605 9z"/>
<path d="M2710 3349 c-166 -11 -244 -43 -337 -141 -105 -112 -128 -195 -119
-431 4 -92 14 -193 22 -224 44 -168 183 -295 354 -323 103 -17 438 2 515 29
132 46 236 152 275 278 16 54 20 93 20 222 0 195 -11 267 -55 358 -56 114
-169 203 -296 232 -50 12 -207 12 -379 0z m386 -213 c28 -13 65 -41 83 -62 48
-59 60 -117 63 -299 2 -179 -4 -207 -65 -268 -55 -54 -99 -69 -227 -78 -270
-18 -348 -7 -415 58 -66 65 -78 104 -83 300 -5 171 -4 173 22 227 58 118 128
142 426 144 133 2 149 0 196 -22z"/>
<path d="M1320 3283 c-238 -9 -361 -18 -397 -29 -62 -17 -113 -59 -151 -123
l-27 -46 2 -274 c3 -353 13 -449 50 -510 34 -56 106 -106 170 -119 58 -13 794
13 835 29 15 6 35 22 44 36 15 24 15 49 6 278 -6 147 -15 262 -21 274 -27 50
-43 51 -385 39 -174 -7 -321 -15 -326 -18 -6 -4 -8 -41 -3 -99 l6 -93 244 7
c135 4 252 8 261 9 15 1 18 -17 26 -122 5 -67 7 -124 5 -126 -11 -9 -639 -26
-662 -17 -16 6 -29 22 -35 43 -6 18 -15 143 -19 278 -11 326 -11 327 14 351
19 19 42 21 369 34 192 8 382 15 422 15 l72 0 0 39 c0 21 -3 66 -6 100 l-7 61
-71 -1 c-39 -1 -226 -8 -416 -16z"/>
<path d="M84 3232 c-8 -5 -5 -156 9 -549 l21 -543 98 0 98 0 0 33 c0 17 -9
257 -20 532 -11 275 -20 508 -20 518 0 15 -11 17 -87 17 -49 0 -93 -4 -99 -8z"/>
<path d="M200 1928 c0 -2 18 -57 39 -123 25 -79 42 -120 52 -120 9 0 27 36 48
100 l35 99 34 -102 c20 -62 39 -102 47 -102 8 0 25 38 44 98 44 142 46 152 29
152 -9 0 -25 -34 -44 -97 l-30 -98 -33 98 c-19 58 -38 97 -46 97 -8 0 -26 -39
-45 -96 -19 -56 -36 -91 -40 -84 -4 6 -18 50 -31 96 -18 65 -27 84 -41 84 -10
0 -18 -1 -18 -2z"/>
<path d="M740 1805 l0 -126 72 3 c46 2 73 7 76 16 3 9 -13 12 -57 12 l-61 0 0
45 0 45 45 0 c25 0 45 5 45 10 0 6 -20 10 -45 10 l-45 0 0 45 0 45 60 0 c33 0
60 4 60 10 0 6 -32 10 -75 10 l-75 0 0 -125z"/>
<path d="M1090 1805 l0 -125 45 0 c58 0 111 22 120 49 9 28 -2 59 -25 71 -19
10 -19 11 0 30 25 25 25 55 0 80 -16 16 -33 20 -80 20 l-60 0 0 -125z m111 95
c11 -6 19 -21 19 -35 0 -28 -26 -45 -69 -45 -30 0 -31 1 -31 45 0 44 1 45 31
45 17 0 39 -5 50 -10z m13 -116 c19 -18 20 -28 6 -55 -8 -14 -21 -19 -55 -19
l-45 0 0 45 0 45 39 0 c23 0 46 -7 55 -16z"/>
<path d="M1700 1805 l0 -125 43 0 c101 0 156 38 164 113 10 89 -41 137 -147
137 l-60 0 0 -125z m152 78 c12 -12 22 -39 25 -66 5 -41 2 -49 -25 -77 -25
-25 -39 -30 -76 -30 l-46 0 0 101 0 102 51 -5 c33 -3 58 -12 71 -25z"/>
<path d="M2110 1805 l0 -125 75 0 c60 0 75 3 75 15 0 12 -13 15 -61 15 l-60 0
3 43 3 42 48 3 c63 4 60 22 -4 22 l-50 0 3 43 3 42 58 3 c84 4 70 22 -18 22
l-75 0 0 -125z"/>
<path d="M2446 1893 c8 -21 31 -77 51 -125 19 -49 41 -88 48 -88 7 0 29 39 48
88 20 48 43 104 52 125 15 36 15 38 -1 35 -12 -2 -31 -36 -56 -97 -21 -52 -39
-96 -41 -98 -2 -2 -21 42 -43 97 -29 74 -44 100 -57 100 -16 0 -16 -2 -1 -37z"/>
<path d="M2850 1805 l0 -126 72 3 c46 2 73 7 76 16 3 9 -13 12 -57 12 l-61 0
0 45 0 45 45 0 c25 0 45 5 45 10 0 6 -20 10 -45 10 l-45 0 0 45 0 45 60 0 c33
0 60 4 60 10 0 6 -32 10 -75 10 l-75 0 0 -125z"/>
<path d="M3200 1805 l0 -125 65 0 c51 0 65 3 65 15 0 11 -12 15 -50 15 l-50 0
0 110 c0 91 -3 110 -15 110 -13 0 -15 -21 -15 -125z"/>
<path d="M3534 1896 c-31 -31 -34 -40 -34 -91 0 -49 4 -60 29 -85 52 -53 131
-52 175 1 49 58 46 132 -6 181 -25 23 -39 28 -80 28 -44 0 -54 -4 -84 -34z
m120 4 c36 -13 60 -68 52 -113 -13 -72 -102 -102 -151 -52 -37 37 -35 106 4
146 31 31 53 35 95 19z"/>
<path d="M3940 1805 c0 -104 2 -125 15 -125 11 0 15 12 15 50 l0 50 43 0 c52
0 87 30 87 76 0 53 -32 74 -109 74 l-51 0 0 -125z m108 89 c45 -31 15 -94 -45
-94 l-33 0 0 55 c0 53 1 55 28 55 15 0 38 -7 50 -16z"/>
<path d="M4300 1805 l0 -125 75 0 c60 0 75 3 75 15 0 12 -13 15 -60 15 l-60 0
0 45 0 45 45 0 c25 0 45 5 45 10 0 6 -20 10 -45 10 l-45 0 0 45 0 45 60 0 c33
0 60 4 60 10 0 6 -32 10 -75 10 l-75 0 0 -125z"/>
<path d="M4650 1804 c0 -96 3 -125 13 -122 7 3 13 26 15 56 4 69 27 70 73 2
32 -47 56 -67 67 -56 2 3 -12 28 -33 57 -29 40 -34 54 -23 60 7 5 16 9 19 9
15 0 28 51 19 74 -12 34 -39 46 -99 46 l-51 0 0 -126z m110 86 c11 -11 20 -24
20 -30 0 -21 -41 -50 -70 -50 -29 0 -30 1 -30 50 0 49 1 50 30 50 17 0 39 -9
50 -20z"/>
</g>
</svg>
