<svg xmlns="http://www.w3.org/2000/svg" viewBox="0 0 991.1 319.4" enable-background="new 0 0 991.1 319.4"><path d="M929.5 214c18.9-10.4 33-25.8 44-43.9 13.9-22.8 21.6-47.2 15.5-74.2-6.3-28-20.2-50.9-45.9-65.4-10.1-5.7-21.3-7-32.6-8.7-31.6-4.7-62.7-11.6-93.4-20.1-2.3-.6-4.7-1-8.5-1.7 4.6 7.7 8.4 14.1 12.7 21.4-13.8 0-26.1-.1-38.3 0-5.3 0-12-1.4-15.7 1.2-3.6 2.6-4.3 9.4-6 14.4-3.4 10.1-6.6 20.3-10.2 31.3-1.5-2.2-2.4-3.5-3.4-4.9-12.1-18.3-28.4-31.2-48.9-38.7-34.4-12.5-68.5-9.9-101.9 3.5-45.3 18.1-77.3 50.5-98.5 94.1-3 6.2-5.5 12.6-8.5 19.6h-117c-8.4 23.3-16.5 45.9-25 69.6h41.7c-1.8 3.1-2.7 5.5-4.2 7.3-11.2 13.7-26 19-43.1 16.4-16.1-2.5-24.7-13.8-29.2-28.5-4.4-14.4-3.6-28.9.1-43.3 4.6-18.3 12.8-34.7 28.4-46.2 11.4-8.4 24.2-13.2 38.4-8.4 12.6 4.3 22.2 12.8 28.9 24.4.7 1.3 1.5 2.5 2.6 4.3l89.9-61.4c-19.7-20.2-38.5-39.6-57.6-59.1-6.2 4-11.8 7.6-17.4 11.1-9.6-6.3-20-9.4-30.8-10.1-9.3-.7-18.8-.9-28.2-.1-34.1 2.8-64.6 15.2-90.5 37.7-8.9 7.7-16.7 16.7-24.8 24.9 6.3-26.1 12.7-52.6 19.2-79.6h-97.9c2.7 7 5.1 13.5 8.1 21.1h-112.4c-7.1 30-14.2 59.3-21.6 89.8h56l-25.2 80.9c6.4-.9 11.7-1.7 17.7-2.6-3.9 11.9-7.5 22.9-11.2 34.2h-62.9c-7.3 29.9-14.6 59.4-22 89.6h213.9c4.7-19.2 9.4-38.1 14.3-58 1.4 2.4 2.3 4 3.2 5.6 8.3 14.9 19.2 27.4 33.5 36.7 27.8 18.1 58.5 24.6 90.9 19.5 54-8.4 94.9-36.7 121.9-84.6.8-1.4 1.6-2.7 2.9-4.7.3 1.8.4 2.6.5 3.3 8.1 42.3 32.4 70.1 74.1 81.8 32.7 9.2 64.8 5.5 96-6.9 90.5-35.8 124.4-135.8 113.4-199.6-.2-1.4 0-2.9 0-4.5h10.5c-9.8 70.5-19.5 140.6-29.2 211.3h97.7c2.3-21.6 4.6-42.8 6.9-63.9 1.8 1.4 2.4 2.7 3 4.1 7.5 18.1 15.1 36.2 22.5 54.3 1.7 4.3 3.9 6.2 8.9 6.1 31.3-.3 62.7-.1 94-.1 2 0 4-.2 7.2-.4-19.8-33.6-38.9-66.1-58-98.6.7-.6 1.1-1 1.5-1.3zm-711.6 9.8h-45.8c8.1-25.9 16.1-51.3 24.5-77.9-5.5.7-10.1 1.3-15.7 2.1 3.9-12.2 7.6-23.9 11.4-35.9h41.9c-15.3 35.9-22.1 72.8-16.3 111.7zm423.7-9.1c-11.4 9-24.6 12.4-39 9.8-16.1-2.9-24.2-14.9-21.5-31.1 2.1-12.5 7.8-23.2 15.6-32.9l3.3-4.2-.9-1.2c-6.8 2.7-13.6 5.4-20.7 8.2 4-27.5 32.7-51.1 59.4-49.6 17.3 1 30.5 13.5 32.2 32.7 2.3 27.5-6.4 51-28.4 68.3zm253.2-76.4c-2.3 3.7-6.1 7.1-10 9.1-7.5 3.8-15.9 3.7-25.1 3 2.2-16.3 4.3-31.8 6.5-47.8 8.4-.7 16.3-.6 24 2.5 4.7 1.8 7.3 5.6 8.1 10.4 1.5 8 .8 16-3.5 22.8z"/></svg>