<svg width="505" height="176" viewBox="0 0 505 176" fill="none" xmlns="http://www.w3.org/2000/svg">
<g filter="url(#filter0_d)">
<path d="M24.1925 129.534L4.26565 130.297L0.0586746 20.3926L19.9855 19.6299L24.1925 129.534Z" fill="#1F425E"/>
<path d="M179.1 113.55C179.154 114.98 178.95 116.319 178.486 117.564C178.022 118.81 177.348 119.911 176.463 120.866C175.628 121.767 174.607 122.497 173.4 123.055C172.193 123.613 170.875 123.919 169.444 123.974L97.554 126.726C95.7146 126.796 93.7141 126.668 91.5525 126.342C89.44 125.962 87.3187 125.352 85.1886 124.513C83.1096 123.671 81.0975 122.572 79.1523 121.213C77.205 119.804 75.4514 118.106 73.8915 116.119C72.3806 114.079 71.1391 111.721 70.1668 109.046C69.1926 106.32 68.64 103.246 68.5089 99.8225L66.4436 45.8668C66.3732 44.0273 66.5023 42.0524 66.8308 39.9419C67.2085 37.7783 67.8181 35.657 68.6596 33.578C69.4991 31.448 70.6235 29.4093 72.0329 27.4621C73.4423 25.5149 75.1415 23.7868 77.1305 22.2779C79.1687 20.716 81.5251 19.4489 84.1999 18.4767C86.8746 17.5044 89.9237 16.9527 93.347 16.8217L174.357 13.7207L175.12 33.6476L94.1098 36.7486C91.504 36.8483 89.5377 37.6144 88.2109 39.0467C86.8842 40.4791 86.2726 42.5493 86.3763 45.2573L88.4358 99.0598C88.5336 101.614 89.2996 103.581 90.7339 104.959C92.2174 106.283 94.2365 106.897 96.7912 106.799L158.794 104.426L157.838 79.4405L104.802 81.4707L104.033 61.3905L166.956 58.9819C168.387 58.9272 169.726 59.1573 170.974 59.6724C172.22 60.1364 173.294 60.8117 174.198 61.6981C175.153 62.5826 175.91 63.6282 176.467 64.8349C177.023 65.9905 177.328 67.2581 177.381 68.6377L179.1 113.55Z" fill="#1F425E"/>
<path d="M337.443 73.026C337.699 79.7194 336.785 85.9203 334.701 91.6287C332.617 97.3371 329.609 102.313 325.678 106.557C321.747 110.801 317.015 114.181 311.483 116.695C305.999 119.156 299.962 120.513 293.371 120.765L266.393 121.798C259.802 122.05 253.653 121.16 247.947 119.127C242.238 117.043 237.262 114.035 233.018 110.104C228.774 106.173 225.369 101.442 222.804 95.912C220.289 90.3796 218.904 84.2667 218.648 77.5733L217.844 56.5735C217.59 49.9312 218.505 43.7559 220.589 38.0475C222.722 32.286 225.755 27.3088 229.688 23.1159C233.619 18.8718 238.351 15.4926 243.883 12.9782C249.416 10.4638 255.478 9.0805 262.069 8.8282L289.047 7.79553C295.638 7.54323 301.762 8.46011 307.419 10.5462C313.128 12.6303 318.104 15.6379 322.348 19.569C326.59 23.449 329.969 28.1807 332.486 33.7642C335 39.2966 336.384 45.3839 336.639 52.0262L337.443 73.026ZM316.712 52.789C316.561 48.8547 315.787 45.3281 314.388 42.2091C313.039 39.0371 311.171 36.371 308.786 34.2109C306.45 31.9977 303.649 30.3396 300.383 29.2365C297.166 28.0804 293.642 27.5757 289.809 27.7224L262.832 28.7551C258.948 28.9037 255.422 29.6783 252.252 31.0789C249.131 32.4264 246.465 34.2938 244.253 36.6811C242.04 39.0172 240.357 41.8193 239.202 45.0871C238.097 48.3019 237.62 51.8764 237.771 55.8107L238.575 76.8106C238.725 80.7448 239.475 84.298 240.825 87.47C242.223 90.589 244.116 93.2541 246.504 95.4653C248.889 97.6254 251.69 99.2836 254.907 100.44C258.173 101.543 261.747 102.02 265.63 101.871L292.455 100.844C296.338 100.696 299.84 99.9478 302.961 98.6002C306.131 97.1996 308.823 95.3313 311.036 92.9951C313.247 90.6078 314.905 87.8068 316.01 84.592C317.165 81.3242 317.666 77.7231 317.516 73.7888L316.712 52.789Z" fill="#1F425E"/>
<path d="M489.42 38.6561C489.594 43.2035 489.188 47.287 488.2 50.9066C487.213 54.5263 485.802 57.7528 483.966 60.5863C482.179 63.3666 480.071 65.7755 477.641 67.813C475.212 69.8504 472.642 71.5606 469.932 72.9436C467.271 74.2735 464.546 75.2732 461.758 75.9429C459.02 76.6105 456.425 76.9913 453.972 77.0852L496.965 111.437L466.155 112.616L423.239 78.2616L408.907 78.8102L408.144 58.8833L453.21 57.1583C455.705 56.8581 457.96 56.2601 459.972 55.3644C462.034 54.4156 463.778 53.1975 465.205 51.7101C466.683 50.2208 467.793 48.4642 468.534 46.4402C469.273 44.3651 469.593 42.0247 469.493 39.4188L469.012 26.8496C468.969 25.7255 468.784 24.8883 468.455 24.338C468.176 23.7347 467.802 23.314 467.333 23.0762C466.912 22.7853 466.445 22.624 465.932 22.5925C465.471 22.559 465.035 22.5501 464.627 22.5657L398.868 25.0829L402.312 115.06L382.385 115.823L378.563 15.9589C378.51 14.5793 378.716 13.2666 379.18 12.0208C379.644 10.775 380.292 9.67557 381.126 8.72262C382.01 7.76771 383.056 7.01132 384.262 6.45343C385.469 5.89555 386.788 5.58923 388.218 5.53446L463.864 2.63887C468.309 2.46871 472.096 3.14247 475.224 4.66015C478.35 6.12673 480.906 8.0501 482.89 10.4303C484.924 12.7574 486.403 15.3104 487.328 18.0893C488.304 20.8663 488.839 23.481 488.933 25.9335L489.42 38.6561Z" fill="#1F425E"/>
</g>
<path d="M47.8321 150.728L40.0306 175.738H36.9937L30.6583 156.662C30.6001 156.476 30.5419 156.278 30.4838 156.069C30.4372 155.859 30.3849 155.638 30.3267 155.405C30.2685 155.638 30.2103 155.859 30.1522 156.069C30.094 156.278 30.0358 156.476 29.9776 156.662L23.6073 175.738H20.5704L12.7689 150.728H15.5789C15.8814 150.728 16.1316 150.804 16.3294 150.955C16.5388 151.106 16.6726 151.298 16.7308 151.531L21.8969 168.914C21.9783 169.228 22.0539 169.566 22.1238 169.926C22.2052 170.287 22.2808 170.671 22.3506 171.078C22.4321 170.671 22.5135 170.287 22.595 169.926C22.6881 169.554 22.787 169.217 22.8917 168.914L28.7734 151.531C28.8432 151.333 28.977 151.153 29.1748 150.99C29.3842 150.815 29.6344 150.728 29.9253 150.728H30.9026C31.2052 150.728 31.4495 150.804 31.6357 150.955C31.8218 151.106 31.9614 151.298 32.0545 151.531L37.9188 168.914C38.0235 169.217 38.1166 169.542 38.198 169.891C38.2911 170.241 38.3783 170.607 38.4598 170.991C38.518 170.607 38.582 170.241 38.6518 169.891C38.7216 169.542 38.7972 169.217 38.8787 168.914L44.0622 151.531C44.1204 151.321 44.2484 151.135 44.4462 150.972C44.6556 150.809 44.9058 150.728 45.1967 150.728H47.8321Z" fill="#1F425E"/>
<path d="M81.8186 172.981L81.8011 175.738H66.3901V150.728H81.8011V153.486H69.776V161.793H79.5148V164.446H69.776V172.981H81.8186Z" fill="#1F425E"/>
<path d="M110.15 173.05C111.116 173.05 111.948 172.94 112.646 172.719C113.344 172.498 113.914 172.189 114.356 171.794C114.81 171.387 115.142 170.91 115.351 170.363C115.56 169.804 115.665 169.193 115.665 168.53C115.665 167.239 115.206 166.221 114.286 165.476C113.367 164.72 111.988 164.341 110.15 164.341H104.74V173.05H110.15ZM104.74 153.398V161.933H109.208C110.162 161.933 110.988 161.828 111.686 161.619C112.396 161.409 112.977 161.118 113.431 160.746C113.897 160.374 114.24 159.926 114.461 159.402C114.682 158.867 114.793 158.285 114.793 157.657C114.793 156.179 114.35 155.103 113.466 154.428C112.582 153.742 111.209 153.398 109.347 153.398H104.74ZM109.347 150.728C110.883 150.728 112.204 150.879 113.309 151.182C114.426 151.484 115.339 151.915 116.049 152.473C116.771 153.032 117.3 153.718 117.637 154.533C117.975 155.336 118.143 156.243 118.143 157.255C118.143 157.872 118.045 158.466 117.847 159.036C117.661 159.594 117.376 160.118 116.992 160.606C116.608 161.095 116.119 161.537 115.526 161.933C114.944 162.317 114.257 162.631 113.466 162.875C115.304 163.224 116.683 163.882 117.602 164.848C118.533 165.802 118.999 167.058 118.999 168.617C118.999 169.676 118.801 170.642 118.405 171.515C118.021 172.387 117.451 173.138 116.695 173.766C115.95 174.394 115.031 174.883 113.937 175.232C112.844 175.57 111.599 175.738 110.202 175.738H101.371V150.728H109.347Z" fill="#1F425E"/>
<path d="M184.215 163.242C184.215 165.115 183.919 166.82 183.325 168.356C182.732 169.891 181.894 171.206 180.812 172.3C179.73 173.394 178.427 174.243 176.902 174.848C175.39 175.442 173.714 175.738 171.876 175.738H162.539V150.728H171.876C173.714 150.728 175.39 151.031 176.902 151.636C178.427 152.229 179.73 153.078 180.812 154.184C181.894 155.277 182.732 156.592 183.325 158.128C183.919 159.664 184.215 161.369 184.215 163.242ZM180.742 163.242C180.742 161.706 180.533 160.333 180.114 159.123C179.695 157.913 179.101 156.889 178.334 156.051C177.566 155.213 176.635 154.574 175.541 154.131C174.447 153.689 173.226 153.468 171.876 153.468H165.924V172.998H171.876C173.226 172.998 174.447 172.777 175.541 172.335C176.635 171.893 177.566 171.259 178.334 170.433C179.101 169.595 179.695 168.571 180.114 167.361C180.533 166.151 180.742 164.778 180.742 163.242Z" fill="#1F425E"/>
<path d="M219.357 172.981L219.339 175.738H203.928V150.728H219.339V153.486H207.314V161.793H217.053V164.446H207.314V172.981H219.357Z" fill="#1F425E"/>
<path d="M259.242 150.728L249.049 175.738H246.013L235.82 150.728H238.525C238.828 150.728 239.072 150.804 239.258 150.955C239.444 151.106 239.584 151.298 239.677 151.531L246.728 169.176C246.879 169.571 247.025 170.002 247.164 170.467C247.316 170.933 247.45 171.422 247.566 171.933C247.682 171.422 247.804 170.933 247.932 170.467C248.06 170.002 248.2 169.571 248.351 169.176L255.385 151.531C255.455 151.333 255.588 151.153 255.786 150.99C255.996 150.815 256.246 150.728 256.537 150.728H259.242Z" fill="#1F425E"/>
<path d="M292.796 172.981L292.778 175.738H277.367V150.728H292.778V153.486H280.753V161.793H290.492V164.446H280.753V172.981H292.796Z" fill="#1F425E"/>
<path d="M326.538 172.893V175.738H312.348V150.728H315.717V172.893H326.538Z" fill="#1F425E"/>
<path d="M367.062 163.242C367.062 165.115 366.766 166.837 366.172 168.408C365.579 169.967 364.741 171.311 363.659 172.44C362.577 173.568 361.274 174.447 359.75 175.075C358.237 175.692 356.561 176 354.723 176C352.885 176 351.209 175.692 349.697 175.075C348.184 174.447 346.887 173.568 345.805 172.44C344.723 171.311 343.885 169.967 343.291 168.408C342.698 166.837 342.401 165.115 342.401 163.242C342.401 161.369 342.698 159.652 343.291 158.093C343.885 156.522 344.723 155.173 345.805 154.044C346.887 152.904 348.184 152.02 349.697 151.391C351.209 150.763 352.885 150.449 354.723 150.449C356.561 150.449 358.237 150.763 359.75 151.391C361.274 152.02 362.577 152.904 363.659 154.044C364.741 155.173 365.579 156.522 366.172 158.093C366.766 159.652 367.062 161.369 367.062 163.242ZM363.589 163.242C363.589 161.706 363.38 160.327 362.961 159.105C362.542 157.884 361.949 156.854 361.181 156.016C360.413 155.167 359.482 154.515 358.388 154.062C357.295 153.608 356.073 153.381 354.723 153.381C353.385 153.381 352.169 153.608 351.075 154.062C349.982 154.515 349.045 155.167 348.265 156.016C347.498 156.854 346.904 157.884 346.485 159.105C346.066 160.327 345.857 161.706 345.857 163.242C345.857 164.778 346.066 166.157 346.485 167.378C346.904 168.588 347.498 169.618 348.265 170.467C349.045 171.305 349.982 171.951 351.075 172.405C352.169 172.847 353.385 173.068 354.723 173.068C356.073 173.068 357.295 172.847 358.388 172.405C359.482 171.951 360.413 171.305 361.181 170.467C361.949 169.618 362.542 168.588 362.961 167.378C363.38 166.157 363.589 164.778 363.589 163.242Z" fill="#1F425E"/>
<path d="M394.124 163.696C395.09 163.696 395.94 163.568 396.673 163.312C397.417 163.056 398.04 162.701 398.54 162.247C399.052 161.782 399.436 161.229 399.692 160.589C399.948 159.949 400.076 159.245 400.076 158.477C400.076 156.883 399.581 155.638 398.592 154.742C397.615 153.846 396.126 153.398 394.124 153.398H390.11V163.696H394.124ZM394.124 150.728C395.707 150.728 397.08 150.914 398.243 151.287C399.419 151.647 400.39 152.165 401.158 152.84C401.926 153.515 402.496 154.329 402.868 155.283C403.252 156.237 403.444 157.302 403.444 158.477C403.444 159.641 403.241 160.705 402.833 161.671C402.426 162.637 401.827 163.469 401.036 164.167C400.256 164.865 399.285 165.412 398.121 165.807C396.969 166.191 395.637 166.383 394.124 166.383H390.11V175.738H386.742V150.728H394.124Z" fill="#1F425E"/>
<path d="M437.969 172.981L437.952 175.738H422.541V150.728H437.952V153.486H425.927V161.793H435.666V164.446H425.927V172.981H437.969Z" fill="#1F425E"/>
<path d="M464.451 162.84C465.428 162.84 466.289 162.724 467.034 162.491C467.79 162.247 468.419 161.91 468.919 161.479C469.431 161.037 469.815 160.513 470.071 159.908C470.327 159.303 470.455 158.634 470.455 157.901C470.455 156.412 469.966 155.289 468.989 154.533C468.011 153.777 466.545 153.398 464.59 153.398H460.89V162.84H464.451ZM476.005 175.738H473.003C472.386 175.738 471.932 175.5 471.642 175.023L465.149 166.087C464.951 165.807 464.736 165.61 464.503 165.493C464.282 165.365 463.933 165.301 463.456 165.301H460.89V175.738H457.522V150.728H464.59C466.173 150.728 467.54 150.891 468.692 151.217C469.844 151.531 470.792 151.99 471.537 152.596C472.293 153.201 472.852 153.934 473.212 154.795C473.573 155.644 473.753 156.598 473.753 157.657C473.753 158.541 473.614 159.367 473.334 160.135C473.055 160.903 472.648 161.595 472.113 162.212C471.589 162.817 470.943 163.335 470.175 163.765C469.419 164.196 468.558 164.522 467.592 164.743C468.023 164.987 468.395 165.342 468.709 165.807L476.005 175.738Z" fill="#1F425E"/>
<defs>
<filter id="filter0_d" x="0" y="0" width="504.023" height="142.83" filterUnits="userSpaceOnUse" color-interpolation-filters="sRGB">
<feFlood flood-opacity="0" result="BackgroundImageFix"/>
<feColorMatrix in="SourceAlpha" type="matrix" values="0 0 0 0 0 0 0 0 0 0 0 0 0 0 0 0 0 0 127 0"/>
<feOffset dx="7" dy="11"/>
<feColorMatrix type="matrix" values="0 0 0 0 0.929412 0 0 0 0 0.792157 0 0 0 0 0.247059 0 0 0 1 0"/>
<feBlend mode="normal" in2="BackgroundImageFix" result="effect1_dropShadow"/>
<feBlend mode="normal" in="SourceGraphic" in2="effect1_dropShadow" result="shape"/>
</filter>
</defs>
</svg>
